<svg xmlns="http://www.w3.org/2000/svg" xmlns:xlink="http://www.w3.org/1999/xlink" version="1.1" x="0px" y="0px" viewBox="0 0 48 60" enable-background="new 0 0 48 48" xml:space="preserve"><g><path d="M36.637,15.407c-1.595-0.511-3.244-0.77-4.901-0.77c-7.126,0-13.355,4.628-15.503,11.515   c-2.7,8.66,2.058,17.932,10.607,20.668c1.596,0.51,3.246,0.77,4.904,0.77c7.123,0,13.354-4.627,15.502-11.516   C49.942,27.414,45.185,18.143,36.637,15.407z M32.639,36.701l0.03,2.129l-1.274,0.02l-0.026-2.068   c-1.174-0.004-2.392-0.355-3.106-0.855l0.466-1.379c0.734,0.48,1.79,0.854,2.924,0.838c1.434-0.021,2.392-0.875,2.375-2.041   c-0.016-1.129-0.813-1.811-2.318-2.404c-2.072-0.789-3.359-1.713-3.383-3.496c-0.025-1.697,1.149-3.005,3.004-3.338l-0.028-2.068   l1.253-0.02l0.027,1.986c1.214,0.025,2.047,0.341,2.638,0.68l-0.485,1.358c-0.429-0.236-1.265-0.678-2.557-0.658   c-1.557,0.023-2.129,0.973-2.117,1.791c0.015,1.064,0.77,1.586,2.539,2.297c2.093,0.832,3.158,1.883,3.184,3.703   C35.807,34.793,34.716,36.322,32.639,36.701z"/><path d="M15.697,22.539c-1.111-0.039-2.236-0.367-2.911-0.841l0.465-1.379c0.734,0.48,1.79,0.854,2.924,0.839   c0.118-0.002,0.228-0.018,0.339-0.03c0.58-0.91,1.234-1.758,1.954-2.542c-0.23-0.82-0.984-1.379-2.236-1.873   c-2.073-0.788-3.36-1.713-3.383-3.496c-0.025-1.697,1.149-3.006,3.004-3.339L15.824,7.81l1.253-0.02l0.028,1.985   c1.213,0.026,2.046,0.341,2.637,0.681l-0.486,1.357c-0.428-0.237-1.264-0.677-2.556-0.657c-1.556,0.021-2.129,0.972-2.118,1.79   c0.015,1.065,0.77,1.586,2.54,2.297c1.321,0.524,2.229,1.138,2.729,1.975c3.213-2.818,7.388-4.468,11.884-4.468   c0.082,0,0.164,0.008,0.246,0.009C30.616,7.457,26.688,2.949,21.161,1.18c-1.595-0.511-3.245-0.77-4.902-0.77   c-7.125,0-13.354,4.627-15.502,11.515c-2.7,8.66,2.058,17.93,10.606,20.668c0.773,0.246,1.561,0.432,2.354,0.561   c-0.278-2.475-0.073-5.041,0.713-7.563C14.765,24.52,15.195,23.504,15.697,22.539z"/></g><text x="0" y="63" fill="#000000" font-size="5px" font-weight="bold" font-family="'Helvetica Neue', Helvetica, Arial-Unicode, Arial, Sans-serif">Created by Creative Stall</text><text x="0" y="68" fill="#000000" font-size="5px" font-weight="bold" font-family="'Helvetica Neue', Helvetica, Arial-Unicode, Arial, Sans-serif">from the Noun Project</text></svg>